<svg width="192" height="192" viewBox="0 0 192 192" fill="none" xmlns="http://www.w3.org/2000/svg">
<circle cx="96" cy="96" r="96" fill="#6B236A"/>
<path d="M100.524 113.372C95.0655 113.556 91.0625 113.648 88.5152 113.648C84.6032 113.648 79.1901 113.556 72.2758 113.372C70.8202 114.983 69.0462 116.894 66.9537 119.104C64.8613 121.268 62.8825 123.294 61.0175 125.181C59.1525 127.023 57.5377 128.611 56.173 129.947C54.8538 131.236 53.7621 132.318 52.8979 133.193C47.8487 138.165 44.5508 141.411 43.0042 142.93C41.503 144.45 39.911 145.808 38.2279 147.005C36.5448 148.248 34.9982 148.87 33.5881 148.87C31.996 148.87 31.2 148.133 31.2 146.66C31.2 145.048 32.3372 142.562 34.6116 139.201C36.886 135.84 39.4561 132.87 42.3218 130.292C45.1876 127.714 47.5302 126.424 49.3498 126.424C49.8501 126.424 50.5552 126.655 51.465 127.115L64.4291 113.095C62.7915 112.865 60.6536 112.727 58.0153 112.681C55.377 112.589 53.6029 112.382 52.6932 112.059C51.7834 111.737 51.3285 110.954 51.3285 109.711C51.3285 107.731 53.421 104.624 57.6059 100.388C59.8803 98.0396 62.0182 96.5433 64.0197 95.8987C66.0212 95.2541 69.8422 94.9088 75.4828 94.8627C72.1621 95.3232 69.7967 95.8757 68.3866 96.5203C67.022 97.1188 66.2714 98.0396 66.1349 99.2828C67.4541 99.2828 68.6595 99.2828 69.7513 99.2828C70.8885 99.2828 72.3441 99.2828 74.1181 99.2828C75.9377 99.2367 77.2796 99.1907 78.1438 99.1446C85.6039 91.7779 92.3817 85.3781 98.4771 79.9452C104.573 74.4662 110.986 69.2865 117.719 64.4061C124.496 59.4796 131.706 54.9675 139.348 50.8698C140.849 52.8496 141.6 54.9215 141.6 57.0854C141.6 58.8811 141.009 60.953 139.826 63.3011C138.689 65.6492 136.232 70.0692 132.457 76.5611C128.727 83.007 124.929 89.8672 121.062 97.1418C122.336 97.1418 123.382 97.1648 124.201 97.2109C125.065 97.2109 125.975 97.2339 126.93 97.2799C129.523 97.2799 131.092 97.326 131.638 97.4181C132.229 97.5102 132.525 97.9706 132.525 98.7993C132.525 99.1677 132.161 99.8353 131.433 100.802C130.751 101.723 129.523 103.288 127.749 105.498C125.975 107.662 124.246 109.872 122.563 112.128L112.533 112.957C107.211 123.086 104.55 128.796 104.55 130.085C104.55 131.972 105.528 132.916 107.484 132.916C108.439 132.916 112.396 130.89 119.356 126.839L118.81 130.499C115.08 133.354 112.169 135.61 110.077 137.267C108.03 138.879 106.233 140.237 104.686 141.342C103.185 142.401 101.798 143.184 100.524 143.69C99.2959 144.243 98.0449 144.519 96.7713 144.519C95.2702 144.519 93.7918 143.805 92.3362 142.378C90.8805 140.997 90.1527 139.017 90.1527 136.439C90.1527 135.38 90.5394 133.883 91.3127 131.949C92.086 129.97 92.9048 128.082 93.7691 126.286C94.6788 124.491 96.9305 120.186 100.524 113.372ZM87.6281 97.6943L109.735 97.2799C112.328 92.8139 114.421 89.1996 116.013 86.4371C117.65 83.6746 119.424 80.6819 121.335 77.4589C123.291 74.19 124.951 71.4275 126.316 69.1714C127.726 66.9154 129.273 64.36 130.956 61.5055C127.681 63.5773 124.337 65.8794 120.926 68.4117C117.514 70.944 113.67 74.0058 109.394 77.5971C105.118 81.1423 101.32 84.4573 97.9995 87.5421C94.6788 90.5809 91.2217 93.9649 87.6281 97.6943Z" fill="white"/>
<path d="M139.58 66.2843C139.58 66.2843 138.18 69.2854 134.681 76.145C158.479 78.0027 161.083 51.2118 156.383 39.3903C156.334 46.7073 155.514 65.5813 139.58 66.2843Z" fill="#FFA2FF"/>
<path d="M115.921 63.3935C115.921 63.3935 110.601 66.5375 106.401 70.2531C87.6425 61.9645 97.367 38.4733 108.546 32.769C103.601 36.5309 91.0022 58.3918 115.921 63.3935Z" fill="#FFA2FF"/>
</svg>
