<svg width="80" height="80" viewBox="0 0 80 80" fill="none" xmlns="http://www.w3.org/2000/svg">
<circle cx="40" cy="40" r="40" fill="#6B236A"/>
<path d="M41.885 46.2741C39.6106 46.3493 37.9427 46.3869 36.8813 46.3869C35.2513 46.3869 32.9959 46.3493 30.115 46.2741C29.5084 46.9318 28.7693 47.7117 27.8974 48.6138C27.0255 49.497 26.2011 50.3239 25.424 51.0944C24.6469 51.8461 23.974 52.4945 23.4054 53.0394C22.8558 53.5656 22.4009 54.0073 22.0408 54.3643C19.937 56.3939 18.5628 57.7188 17.9184 58.3389C17.293 58.9591 16.6296 59.5135 15.9283 60.0021C15.227 60.5095 14.5826 60.7632 13.9951 60.7632C13.3317 60.7632 13 60.4625 13 59.8611C13 59.2034 13.4738 58.1886 14.4215 56.8167C15.3692 55.4449 16.44 54.2328 17.6341 53.1804C18.8282 52.128 19.8043 51.6018 20.5624 51.6018C20.7709 51.6018 21.0647 51.6958 21.4438 51.8837L26.8455 46.1614C26.1632 46.0674 25.2724 46.011 24.1731 45.9922C23.0738 45.9546 22.3346 45.8701 21.9555 45.7385C21.5764 45.607 21.3869 45.2875 21.3869 44.7801C21.3869 43.972 22.2588 42.7035 24.0025 40.9746C24.9501 40.0162 25.841 39.4054 26.6749 39.1423C27.5089 38.8792 29.1009 38.7383 31.4512 38.7195C30.0676 38.9074 29.082 39.1329 28.4944 39.396C27.9258 39.6403 27.6131 40.0162 27.5562 40.5236C28.1059 40.5236 28.6082 40.5236 29.063 40.5236C29.5369 40.5236 30.1434 40.5236 30.8826 40.5236C31.6407 40.5048 32.1998 40.486 32.56 40.4672C35.6683 37.4604 38.4924 34.8482 41.0321 32.6307C43.5719 30.3944 46.2443 28.2802 49.0494 26.2882C51.8735 24.2774 54.8776 22.4357 58.0618 20.7632C58.6873 21.5713 59 22.4169 59 23.3002C59 24.0331 58.7536 24.8788 58.2608 25.8372C57.787 26.7956 56.7635 28.5997 55.1904 31.2494C53.6362 33.8804 52.0536 36.6805 50.4425 39.6497C50.9732 39.6497 51.4091 39.6591 51.7503 39.6779C52.1104 39.6779 52.4895 39.6873 52.8875 39.7061C53.9679 39.7061 54.6218 39.7249 54.8492 39.7625C55.0956 39.8001 55.2188 39.988 55.2188 40.3263C55.2188 40.4766 55.0672 40.7491 54.7639 41.1437C54.4796 41.5196 53.9679 42.1585 53.2287 43.0606C52.4895 43.9438 51.7693 44.8459 51.068 45.7667L46.8888 46.105C44.6712 50.2393 43.5624 52.5696 43.5624 53.0958C43.5624 53.8663 43.9699 54.2516 44.7849 54.2516C45.1829 54.2516 46.8319 53.4247 49.7318 51.7709L49.5043 53.2649C47.9501 54.4301 46.7371 55.3509 45.8653 56.0275C45.0124 56.6852 44.2637 57.2396 43.6193 57.6906C42.9938 58.1228 42.4157 58.4423 41.885 58.649C41.3733 58.8745 40.8521 58.9873 40.3214 58.9873C39.6959 58.9873 39.0799 58.696 38.4734 58.1134C37.8669 57.5497 37.5637 56.7416 37.5637 55.6892C37.5637 55.257 37.7248 54.6462 38.047 53.8569C38.3692 53.0488 38.7103 52.2783 39.0705 51.5454C39.4495 50.8125 40.3877 49.0554 41.885 46.2741ZM36.5117 39.8752L45.7231 39.7061C46.8035 37.8832 47.6753 36.408 48.3387 35.2804C49.021 34.1529 49.7602 32.9314 50.5562 31.6159C51.3712 30.2816 52.063 29.1541 52.6316 28.2332C53.2192 27.3124 53.8636 26.2694 54.5649 25.1043C53.2002 25.9499 51.8072 26.8896 50.3857 27.9232C48.9642 28.9567 47.3626 30.2065 45.581 31.6723C43.7993 33.1193 42.2167 34.4724 40.8331 35.7315C39.4495 36.9718 38.0091 38.353 36.5117 39.8752Z" fill="white"/>
<path d="M58.1585 27.0548C58.1585 27.0548 57.5752 28.2797 56.1169 31.0796C66.0329 31.8379 67.118 20.9028 65.1595 16.0777C65.1393 19.0642 64.7974 26.7679 58.1585 27.0548Z" fill="#FFA2FF"/>
<path d="M48.3003 25.8749C48.3003 25.8749 46.0837 27.1582 44.3339 28.6747C36.5177 25.2916 40.5696 15.7034 45.2275 13.3751C43.1673 14.9106 37.9176 23.8334 48.3003 25.8749Z" fill="#FFA2FF"/>
</svg>
