<svg width="80" height="80" viewBox="0 0 80 80" fill="none" xmlns="http://www.w3.org/2000/svg">
<circle cx="40" cy="40" r="40" fill="#131313"/>
<path d="M49.5262 51.046C48.9519 49.992 48.0905 49.0411 46.9419 48.1933C45.7933 47.3455 44.4953 46.6696 43.0481 46.1655C41.6238 45.6385 40.1307 45.249 38.5686 44.9969C33.9282 44.3095 29.598 42.8087 25.5779 40.4945C25.2333 40.3112 24.8658 39.9217 24.4752 39.326C24.0847 38.7302 23.8894 38.1574 23.8894 37.6075C23.8894 35.5911 24.2225 33.5748 24.8887 31.5585C25.5779 29.5192 26.4508 27.9268 27.5075 26.7811C29.2075 24.8793 32.2627 23.2181 36.6734 21.7975C41.107 20.3769 46.0919 19.6666 51.6281 19.6666C54.9361 19.6666 57.486 19.9187 59.2778 20.4228C61.0926 20.9268 62 21.7059 62 22.7599C62 24.4784 61.7588 25.8073 61.2764 26.7467C60.8169 27.6862 60.3116 28.3163 59.7602 28.6371C59.2319 28.9349 58.29 29.3474 56.9347 29.8744C55.4874 30.3784 54.224 30.9054 53.1443 31.4554C52.0876 32.0053 51.1802 32.5323 50.4221 33.0364C49.664 33.5404 49.1931 33.7925 49.0093 33.7925C48.7796 33.7925 48.6648 33.7008 48.6648 33.5175C48.6648 33.128 49.0668 32.5437 49.8708 31.7647C50.6978 30.9627 51.7085 30.2639 52.9031 29.6681C54.1665 29.0037 54.7983 28.5798 54.7983 28.3965C54.7983 28.0986 54.0976 27.9497 52.6963 27.9497C48.4465 27.9497 44.5183 28.3277 40.9117 29.0839C37.3051 29.84 34.4566 30.8367 32.3661 32.074C30.2986 33.3113 29.2649 34.5715 29.2649 35.8546C29.2649 36.6566 29.6899 37.2294 30.5398 37.5731C31.4128 37.8939 33.3195 38.4438 36.2599 39.2229C39.2003 40.0019 41.8306 40.8955 44.1508 41.9037C47.4817 43.3243 49.9512 44.8022 51.5592 46.3373C53.1673 47.8725 53.9713 49.591 53.9713 51.4928C53.9713 52.7988 53.6497 54.1163 53.0065 55.4452C52.3862 56.7513 51.4673 57.9542 50.2498 59.054C49.0323 60.1539 47.631 61.0589 46.0459 61.7692C44.6906 62.3421 42.9792 62.8805 40.9117 63.3846C38.8672 63.8887 36.6389 64.2782 34.2268 64.5532C31.8378 64.851 29.552 65 27.3697 65C23.3496 65 20.1106 64.6219 17.6525 63.8658C15.2175 63.1096 14 61.964 14 60.4288C14 59.7414 14.4135 58.676 15.2405 57.2325C16.0675 55.766 17.0438 54.7808 18.1694 54.2767C19.1572 53.8872 20.1106 53.6695 21.0294 53.6237C21.9483 53.5549 22.4078 53.658 22.4078 53.933C22.4078 54.0017 22.3733 54.0705 22.3044 54.1392C22.2355 54.2079 22.1551 54.2652 22.0632 54.3111C21.9713 54.3569 21.8794 54.4027 21.7875 54.4485C21.3281 54.6318 20.949 54.7808 20.6504 54.8953C20.3747 54.987 20.145 55.0901 19.9612 55.2047C19.8004 55.2963 19.72 55.4338 19.72 55.6171C19.72 56.0983 22.0976 56.3389 26.8528 56.3389C30.9878 56.3389 34.3762 56.1899 37.0179 55.892C39.6597 55.5942 41.9914 55.0557 44.0129 54.2767C46.0345 53.4976 47.8722 52.4207 49.5262 51.046Z" fill="white"/>
<path d="M35.3334 21.5597C34.2009 21.7704 31.4296 23.0521 30.1856 23.6667C28.0235 21.1383 28.384 16.8189 29.9283 13C29.9283 15.3704 30.1856 21.2963 35.3334 21.5597Z" fill="#FFA2FF"/>
<path d="M47.5766 18.9762C48.6614 18.7271 51.6017 18.7828 52.9362 18.8418C53.9145 15.8214 51.9837 12.2083 49.1877 9.48131C50.0714 11.5396 52.0524 16.7835 47.5766 18.9762Z" fill="#FFA2FF"/>
</svg>
