<svg width="120" height="50" viewBox="0 0 120 50" fill="none" xmlns="http://www.w3.org/2000/svg">
<path d="M90.4585 8.25665L93.7128 17.9571L103.319 14.4335C103.949 14.2087 104.53 13.8541 105.026 13.3921C105.523 12.9301 105.923 12.3706 106.203 11.7489C106.482 11.1272 106.634 10.4567 106.65 9.77974C106.666 9.10276 106.544 8.43392 106.293 7.81533C106.042 7.19674 105.668 6.6418 105.192 6.18547C104.717 5.72913 104.152 5.38128 103.532 5.16382C102.912 4.94635 102.252 4.86399 101.591 4.92192C100.931 4.97984 100.286 5.1768 99.6959 5.50038C99.5765 4.84053 99.3245 4.21702 98.9558 3.66887C98.5871 3.12071 98.1096 2.65972 97.5531 2.31474C96.9967 1.96975 96.3732 1.74821 95.7218 1.66397C95.0705 1.57973 94.4052 1.63461 93.7676 1.82517C93.13 2.01573 92.5339 2.33787 92.0165 2.77143C91.4991 3.20499 91.0716 3.74064 90.7607 4.34484C90.4499 4.94905 90.2624 5.60881 90.2099 6.28283C90.1575 6.95686 90.2413 7.63063 90.456 8.26199" fill="#DF2DDF"/>
<path d="M24.5853 4.62899L24.3364 9.01411L28.7268 9.14059C29.0137 9.15138 29.302 9.10272 29.5734 8.99767C29.8449 8.89261 30.0937 8.73344 30.3042 8.53017C30.5146 8.3269 30.6822 8.08394 30.7963 7.81659C30.9104 7.54924 30.9686 7.26329 30.9672 6.97674C30.9658 6.6902 30.9048 6.40927 30.7881 6.15164C30.6715 5.89401 30.5016 5.66527 30.2892 5.47982C30.0768 5.29437 29.8266 5.15623 29.5542 5.07409C29.2818 4.99195 28.9932 4.9676 28.7065 5.00257C28.7641 4.72053 28.763 4.43185 28.7034 4.1546C28.6438 3.87735 28.5269 3.6175 28.3601 3.39131C28.1933 3.16512 27.9801 2.97745 27.7339 2.84006C27.4877 2.70267 27.2138 2.61851 26.9293 2.59285C26.6448 2.56719 26.3558 2.60059 26.0805 2.69094C25.8052 2.78129 25.5494 2.92666 25.3292 3.11795C25.109 3.30924 24.9291 3.54233 24.8008 3.80263C24.6725 4.06293 24.5985 4.34484 24.5834 4.63071" fill="#DF2DDF"/>
<path d="M110.468 10.9719L107.606 14.3032L111.016 17.0717C111.237 17.2546 111.495 17.3911 111.775 17.4727C112.054 17.5542 112.349 17.579 112.639 17.5454C112.93 17.5119 113.211 17.4208 113.464 17.2778C113.717 17.1348 113.937 16.9431 114.11 16.7147C114.283 16.4862 114.405 16.2261 114.469 15.9506C114.533 15.6751 114.537 15.3902 114.481 15.1138C114.425 14.8375 114.31 14.5757 114.144 14.345C113.977 14.1142 113.763 13.9195 113.514 13.773C113.731 13.584 113.906 13.3541 114.027 13.0977C114.148 12.8413 114.213 12.5639 114.218 12.2829C114.223 12.0019 114.168 11.7233 114.056 11.4646C113.944 11.2058 113.777 10.9725 113.567 10.7793C113.357 10.586 113.107 10.4369 112.833 10.3414C112.56 10.2458 112.268 10.2058 111.977 10.224C111.686 10.2421 111.402 10.3179 111.142 10.4466C110.881 10.5753 110.651 10.7543 110.466 10.9722" fill="#DF2DDF"/>
<path d="M18.8427 16.1629L23.2186 16.5405L23.4739 12.1557C23.4932 11.8692 23.453 11.5797 23.3559 11.3052C23.2589 11.0308 23.1071 10.7774 22.9101 10.5611C22.7131 10.3447 22.4752 10.1701 22.2113 10.0482C21.9474 9.9263 21.6633 9.85974 21.3768 9.85274C21.0903 9.84573 20.8077 9.89842 20.5468 10.0075C20.2859 10.1166 20.0522 10.2796 19.8606 10.4865C19.669 10.6933 19.5236 10.9394 19.4335 11.2093C19.3434 11.4791 19.3106 11.7669 19.3371 12.0545C19.0569 11.9887 18.7683 11.9813 18.4894 12.0327C18.2105 12.0841 17.9474 12.1933 17.7164 12.3534C17.4854 12.5135 17.2915 12.7211 17.147 12.9632C17.0024 13.2052 16.9102 13.4766 16.8762 13.7602C16.8422 14.0438 16.8671 14.3336 16.9494 14.6115C17.0316 14.8894 17.1694 15.1493 17.3541 15.375C17.5389 15.6007 17.7666 15.7874 18.023 15.9233C18.2794 16.0592 18.559 16.1414 18.8443 16.1649" fill="#DF2DDF"/>
<path d="M8.24207 17.0026L11.0964 13.6643L7.67988 10.9042C7.45814 10.7218 7.1993 10.5859 6.91966 10.505C6.64002 10.4241 6.34564 10.4001 6.05506 10.4343C5.76447 10.4686 5.48398 10.5604 5.23124 10.704C4.9785 10.8476 4.75899 11.0398 4.58653 11.2687C4.41407 11.4975 4.2924 11.758 4.22918 12.0336C4.16595 12.3093 4.16255 12.5942 4.21918 12.8704C4.27581 13.1466 4.39125 13.4081 4.55822 13.6384C4.7252 13.8688 4.94009 14.063 5.18938 14.2089C4.97272 14.3984 4.79869 14.6287 4.67816 14.8854C4.55763 15.1421 4.49321 15.4196 4.48892 15.7007C4.48463 15.9817 4.54057 16.2601 4.65324 16.5186C4.7659 16.7771 4.93287 17.01 5.14369 17.2027C5.35452 17.3955 5.60465 17.5439 5.87844 17.6388C6.15224 17.7337 6.44379 17.773 6.73487 17.7542C7.02594 17.7354 7.31026 17.6589 7.57004 17.5295C7.82982 17.4001 8.05947 17.2207 8.2446 17.0023" fill="#DF2DDF"/>
<path d="M77.6557 37.8588L73.5222 39.344L75.1222 43.4344C75.2244 43.7027 75.3819 43.949 75.5847 44.1578C75.7875 44.3666 76.0313 44.5334 76.3007 44.6477C76.57 44.7619 76.8592 44.8212 77.1498 44.8217C77.4405 44.8222 77.7265 44.7639 77.9897 44.6506C78.2528 44.5373 78.4876 44.3714 78.6791 44.1633C78.8706 43.9552 79.0147 43.7094 79.1024 43.4414C79.1901 43.1734 79.2194 42.8891 79.1885 42.6063C79.1576 42.3234 79.0672 42.0483 78.9229 41.7981C79.205 41.7408 79.4703 41.627 79.7022 41.4637C79.9341 41.3005 80.1276 41.0913 80.2706 40.8494C80.4135 40.6074 80.5029 40.3378 80.5331 40.0575C80.5633 39.7772 80.5337 39.4921 80.4461 39.2202C80.3585 38.9483 80.2148 38.6954 80.024 38.4773C79.8332 38.2592 79.5994 38.0807 79.3373 37.9528C79.0751 37.8249 78.7903 37.7504 78.5005 37.7341C78.2108 37.7177 77.9224 37.7598 77.6534 37.8577" fill="#DF2DDF"/>
<path d="M10.7 8.99112L15.0462 9.62479L15.5584 5.26258C15.5944 4.97773 15.5713 4.68629 15.4905 4.40662C15.4097 4.12696 15.2731 3.86512 15.0891 3.63759C14.9051 3.41007 14.6779 3.22178 14.4216 3.0846C14.1653 2.94742 13.8856 2.86431 13.6 2.8405C13.3145 2.81669 13.0293 2.85271 12.7624 2.94627C12.4955 3.03984 12.2527 3.18894 12.0493 3.38417C11.8459 3.5794 11.6862 3.81654 11.5805 4.08065C11.4747 4.34476 11.425 4.63013 11.4346 4.91878C11.1588 4.83663 10.8711 4.81227 10.5897 4.84725C10.3083 4.88223 10.0391 4.97579 9.79916 5.12206C9.55916 5.26834 9.35347 5.46419 9.19496 5.69736C9.03644 5.93052 8.92851 6.19599 8.87792 6.47713C8.82734 6.75827 8.83518 7.04905 8.90096 7.33125C8.96675 7.61346 9.08905 7.88102 9.26023 8.11719C9.43141 8.35336 9.64777 8.55305 9.89577 8.70378C10.1438 8.8545 10.4181 8.95301 10.7015 8.99314" fill="#DF2DDF"/>
<path d="M80.3902 7.58077L84.6336 8.71399L85.6481 4.44056C85.7168 4.16181 85.7277 3.86966 85.6799 3.58251C85.632 3.29537 85.5267 3.01945 85.3703 2.77213C85.214 2.52482 85.01 2.31146 84.7714 2.14549C84.5327 1.97952 84.2645 1.86455 83.9837 1.8078C83.7028 1.75105 83.4153 1.75376 83.1394 1.81576C82.8635 1.87775 82.605 1.9977 82.3803 2.16803C82.1557 2.33837 81.9696 2.5554 81.8339 2.80547C81.6983 3.05554 81.6159 3.33323 81.5919 3.62105C81.3275 3.50747 81.0446 3.44993 80.761 3.45205C80.4774 3.45417 80.1993 3.5159 79.9439 3.63337C79.6886 3.75084 79.4616 3.92153 79.2771 4.13475C79.0926 4.34797 78.9547 4.59913 78.8718 4.87251C78.789 5.1459 78.7631 5.43562 78.7957 5.72355C78.8283 6.01147 78.9188 6.29141 79.0614 6.54583C79.2041 6.80025 79.3958 7.02368 79.6247 7.20214C79.8535 7.3806 80.1146 7.51024 80.3915 7.58295" fill="#DF2DDF"/>
<path d="M59.6855 42.6676L56.6244 34.8241L48.8694 38.1028C48.3606 38.3127 47.8968 38.6273 47.5072 39.0268C47.1177 39.4263 46.8108 39.9021 46.6059 40.4243C46.4009 40.9464 46.3025 41.5035 46.3166 42.0605C46.3308 42.6176 46.4572 43.1625 46.6881 43.6609C46.9189 44.1594 47.2491 44.6006 47.6578 44.9567C48.0666 45.3129 48.5451 45.5763 49.0631 45.7303C49.5812 45.8844 50.1276 45.9258 50.6679 45.8519C51.2083 45.7779 51.7309 45.5904 52.2029 45.3009C52.3273 45.8385 52.5592 46.3409 52.8841 46.7768C53.2089 47.2127 53.6198 47.5725 54.0909 47.8339C54.562 48.0953 55.0833 48.2526 55.622 48.2959C56.1608 48.3392 56.7054 48.2676 57.2219 48.0856C57.7383 47.9035 58.2155 47.615 58.6235 47.2381C59.0314 46.8611 59.3615 46.4038 59.5929 45.8948C59.8244 45.3858 59.9522 44.8361 59.9685 44.28C59.9847 43.7239 59.889 43.1734 59.6874 42.6631" fill="#DF2DDF"/>
<path d="M71.3726 43.604L66.9575 41.3088L64.7863 45.7862C64.6418 46.0776 64.5581 46.3981 64.5405 46.7274C64.5229 47.0567 64.5717 47.3878 64.6839 47.6997C64.7961 48.0116 64.9692 48.2976 65.1924 48.5398C65.4156 48.7819 65.684 48.975 65.9808 49.1067C66.2775 49.2384 66.5961 49.306 66.9165 49.3052C67.2369 49.3043 67.5522 49.2351 67.8425 49.1019C68.1328 48.9687 68.3919 48.7743 68.6033 48.531C68.8148 48.2878 68.9741 48.0009 69.0712 47.6884C69.3359 47.879 69.6346 48.0121 69.9488 48.0794C70.2629 48.1466 70.5857 48.1467 70.897 48.0794C71.2082 48.0122 71.5012 47.8791 71.7576 47.6886C72.014 47.4981 72.2282 47.2542 72.387 46.9721C72.5457 46.6901 72.6455 46.376 72.6801 46.0496C72.7147 45.7231 72.6834 45.3913 72.5881 45.0749C72.4928 44.7585 72.3356 44.4643 72.1263 44.2107C71.9169 43.9571 71.6601 43.7497 71.3717 43.6013" fill="#DF2DDF"/>
<path d="M42.4853 45.6734L42.1642 40.7077L37.2094 41.1671C36.8853 41.1943 36.5678 41.2885 36.2768 41.4438C35.9859 41.5992 35.7279 41.8123 35.5191 42.0697C35.3103 42.3272 35.1551 42.6234 35.0634 42.9397C34.9717 43.256 34.9455 43.5855 34.9864 43.9076C35.0272 44.2297 35.1343 44.5372 35.3008 44.811C35.4673 45.0847 35.6897 45.3187 35.954 45.4982C36.2182 45.6776 36.5186 45.7987 36.8362 45.8537C37.1538 45.9088 37.4817 45.8966 37.7993 45.818C37.7732 46.1431 37.814 46.4676 37.919 46.7712C38.024 47.0748 38.191 47.3511 38.4097 47.5826C38.6283 47.8141 38.8937 47.9959 39.1894 48.1167C39.4852 48.2375 39.8048 48.2946 40.1282 48.2844C40.4517 48.2743 40.7721 48.1972 41.0694 48.0578C41.3666 47.9185 41.6343 47.7199 41.8557 47.4746C42.0772 47.2293 42.2475 46.9426 42.3562 46.6322C42.4648 46.3219 42.5094 45.9947 42.4871 45.6712" fill="#DF2DDF"/>
</svg>
