<svg width="178" height="60" viewBox="0 0 178 60" fill="none" xmlns="http://www.w3.org/2000/svg">
<rect width="178" height="60" fill="#1C1C1C"/>
<path d="M148.635 35.8133L143.802 39.9132C141.503 41.9224 139.964 42.927 139.186 42.927C138.48 42.927 137.738 42.1215 136.96 40.5105C136.181 38.8814 135.792 37.4605 135.792 36.2478C135.792 35.216 135.946 34.3472 136.254 33.6412C136.58 32.9172 137.132 31.985 137.91 30.8447C139.014 29.3061 140.073 28.0028 141.087 26.9349C142.1 25.8669 142.996 25.0433 143.775 24.4641C144.553 23.8668 145.096 23.5681 145.404 23.5681C145.893 23.5681 146.363 23.8215 146.816 24.3284C147.286 24.8352 147.522 25.3601 147.522 25.9031C147.522 26.247 147.268 26.7991 146.761 27.5594C146.273 28.3196 145.485 29.288 144.399 30.4645C143.331 31.623 141.838 33.0168 139.919 34.6458L139.403 36.1392C139.259 36.4288 139.186 36.6822 139.186 36.8994C139.186 37.3881 139.431 37.6325 139.919 37.6325C140.426 37.6325 141.612 36.9899 143.476 35.7047C145.359 34.4196 147.395 32.6909 149.585 30.5188C150.436 29.6681 151.142 28.9169 151.703 28.2653C152.264 27.6137 152.771 27.0073 153.223 26.4461C153.676 25.8669 154.047 25.4325 154.337 25.1429C154.644 24.8533 154.916 24.6994 155.151 24.6813C155.604 24.627 155.957 24.8171 156.21 25.2515C156.463 25.6859 156.59 26.3285 156.59 27.1792C156.59 27.668 156.373 28.2834 155.938 29.0255C155.504 29.7496 154.69 30.9985 153.495 32.7724C152.3 34.5282 151.106 36.3564 149.911 38.257C148.734 40.1394 147.531 42.2663 146.3 44.6375C146.354 44.5832 146.906 44.0402 147.956 43.0084C149.024 41.9767 150.146 40.8997 151.323 39.7774C152.499 38.6552 153.468 37.7592 154.228 37.0894C154.988 36.4016 155.938 35.6052 157.079 34.7001V36.5193C154.635 39.1439 152.418 41.6328 150.427 43.9859C148.454 46.339 146.924 48.2215 145.838 49.6333C144.77 51.0452 144.146 51.8688 143.965 52.1041C143.476 52.7376 143.033 53.3259 142.634 53.8689C142.254 54.4301 141.928 54.8554 141.657 55.145C141.403 55.4528 141.195 55.6066 141.032 55.6066C140.652 55.6066 140.308 55.2265 140.001 54.4663C139.711 53.7241 139.566 53.0634 139.566 52.4842C139.566 51.9593 139.666 51.4977 139.865 51.0995C141.168 48.1672 144.091 43.0718 148.635 35.8133Z" fill="white"/>
<path d="M116.705 29.8943C119.456 27.3964 122.126 25.541 124.715 24.3283C127.303 23.1155 129.303 22.5092 130.715 22.5092C131.095 22.5092 131.448 22.6721 131.774 22.9979C132.1 23.3056 132.353 23.6676 132.534 24.0839C132.733 24.5002 132.833 24.808 132.833 25.0071C132.833 25.3329 132.706 25.5772 132.453 25.7402C132.199 25.885 131.756 26.066 131.122 26.2832C131.249 26.5728 131.412 26.9439 131.611 27.3964C131.81 27.8489 131.964 28.22 132.073 28.5096C132.181 28.7811 132.236 29.0255 132.236 29.2427C132.236 29.6771 131.792 30.4916 130.905 31.6863C130.036 32.8628 129.421 33.7317 129.059 34.2928C128.715 34.8539 128.543 35.5418 128.543 36.3563C128.543 37.6958 129.158 38.3655 130.389 38.3655C131.656 38.3655 133.638 37.1799 136.335 34.8087V36.4649C131.756 41.5512 128.48 44.0944 126.507 44.0944C125.801 44.0944 125.294 43.8591 124.986 43.3885C124.697 42.936 124.552 42.2572 124.552 41.3521C124.552 39.9222 125.068 37.8496 126.099 35.1345C123.457 38.0668 121.493 40.1575 120.208 41.4064C118.922 42.6373 117.864 43.2527 117.031 43.2527C116.633 43.2527 116.135 42.9088 115.538 42.221C114.94 41.5331 114.406 40.6462 113.936 39.5602C113.483 38.456 113.257 37.3156 113.257 36.1391C113.257 35.2884 113.338 34.5824 113.501 34.0213C113.664 33.4421 113.981 32.8538 114.451 32.2565C114.922 31.6591 115.673 30.8717 116.705 29.8943ZM129.711 26.9077C125.004 29.0617 121.647 30.8898 119.637 32.3922C117.646 33.8946 116.651 35.4422 116.651 37.0351C116.651 37.6143 116.75 38.094 116.949 38.4741C117.149 38.8361 117.42 39.0171 117.764 39.0171C117.963 39.0171 118.316 38.8904 118.823 38.637C120.723 37.5148 122.461 36.0576 124.036 34.2657C125.611 32.4556 127.502 30.0029 129.711 26.9077Z" fill="white"/>
<path d="M111.519 29.84C108.333 33.3878 106.741 35.8586 106.741 37.2523C106.741 38.0307 107.057 38.4198 107.691 38.4198C108.216 38.4198 108.895 38.1483 109.727 37.6053C110.578 37.0442 111.899 36.0577 113.691 34.6458V36.5193C111.121 39.0534 109.148 40.8816 107.772 42.0038C106.397 43.1261 105.274 43.6872 104.406 43.6872C102.921 43.6872 102.179 42.7097 102.179 40.7549C102.179 40.1756 102.27 39.6054 102.451 39.0443C102.632 38.4832 102.876 37.904 103.184 37.3066C103.51 36.6912 103.998 35.8224 104.65 34.7001C105.302 33.5598 106.053 32.2746 106.904 30.8446C105.872 31.3696 104.578 32.4104 103.021 33.967C102.007 34.9445 101.147 35.8767 100.442 36.7636C99.7356 37.6325 98.9753 38.6099 98.1608 39.696C97.3644 40.7639 96.7761 41.4879 96.396 41.8681C96.0339 42.2301 95.6629 42.4111 95.2828 42.4111C94.7035 42.4111 94.1696 41.8047 93.6808 40.5919C93.1921 39.3792 92.9478 37.9673 92.9478 36.3563C92.9478 35.3608 93.0564 34.5825 93.2736 34.0213C93.5089 33.4602 93.9614 32.6638 94.6311 31.632C95.8801 29.7133 96.9571 28.3105 97.8621 27.4236C98.7672 26.5185 99.636 26.066 100.469 26.066C101.048 26.066 101.509 26.1656 101.853 26.3647C102.215 26.5638 102.396 26.8715 102.396 27.2878C102.396 27.4688 102.342 27.6589 102.233 27.858C102.125 28.0571 101.998 28.2381 101.853 28.401C101.727 28.5639 101.446 28.8807 101.012 29.3513C98.1517 32.519 96.7218 34.5734 96.7218 35.5147C96.7218 36.0396 96.8937 36.302 97.2377 36.302C97.4549 36.302 97.8712 35.9581 98.4866 35.2703C99.1201 34.5644 99.9256 33.6503 100.903 32.528C101.899 31.3877 103.066 30.2021 104.406 28.9712C105.763 27.7403 107.302 26.5547 109.021 25.4144C109.981 24.7447 110.777 24.4098 111.411 24.4098C111.7 24.4098 111.981 24.808 112.252 25.6044C112.542 26.4009 112.687 27.2064 112.687 28.0209C112.687 28.4191 112.298 29.0255 111.519 29.84Z" fill="white"/>
<path d="M93.2464 34.7001V36.5192C92.0517 37.6053 91.0924 38.3293 90.3683 38.6913C89.6443 39.0533 88.6035 39.1981 87.2459 39.1257C84.8928 41.9133 82.8203 43.307 81.0283 43.307C80.0147 43.307 79.0915 42.9722 78.2589 42.3024C77.4262 41.6327 76.7565 40.7186 76.2497 39.5602C75.761 38.4017 75.5166 37.1075 75.5166 35.6775C75.5166 34.5191 75.8967 33.2339 76.657 31.8221C77.4353 30.4102 78.4308 29.0979 79.6436 27.8851C80.8745 26.6543 82.1868 25.6678 83.5805 24.9256C84.9743 24.1654 86.2685 23.7853 87.4632 23.7853C88.3139 23.7853 88.9836 23.921 89.4724 24.1925C89.9611 24.446 90.2054 24.808 90.2054 25.2786C90.2054 25.6406 89.9973 26.0569 89.581 26.5276C90.2688 26.6724 90.7394 26.9167 90.9928 27.2606C91.2462 27.5865 91.3729 28.1928 91.3729 29.0798C91.3729 29.9486 91.1648 31.0437 90.7485 32.3651C90.3502 33.6864 89.7982 34.9263 89.0922 36.0848L89.581 36.5735H89.9882C90.2959 36.5735 90.5946 36.5011 90.8842 36.3563C91.1919 36.1934 91.4634 36.0305 91.6988 35.8676C91.9341 35.6866 92.4499 35.2974 93.2464 34.7001ZM87.6532 27.5593C86.1508 28.4643 84.8657 29.2879 83.7977 30.0301C82.7298 30.7541 81.8247 31.4962 81.0826 32.2565C80.3405 32.9986 79.8427 33.7498 79.5893 34.51C79.1368 36.5373 78.9105 37.6324 78.9105 37.7953C78.9105 38.99 79.7431 39.5873 81.4084 39.5873C82.1868 39.5873 83.49 38.9176 85.3182 37.5781C85.0105 36.7274 84.8566 35.9128 84.8566 35.1345C84.8566 33.9942 85.0919 32.8357 85.5626 31.6591C86.0332 30.4645 86.7301 29.0979 87.6532 27.5593Z" fill="white"/>
<path d="M65.009 34.8087C63.4161 36.6188 61.9861 38.1574 60.7191 39.4244C59.4701 40.6915 58.4474 41.6418 57.651 42.2753C56.8727 42.8907 56.3387 43.1984 56.0491 43.1984C55.5784 43.1984 55.0445 42.8183 54.4471 42.0581C53.8679 41.2979 53.3701 40.3295 52.9538 39.1529C52.5375 37.9764 52.3293 36.7817 52.3293 35.5689C52.3293 33.8132 53.1801 32.0483 54.8816 30.2744C56.583 28.4825 58.5198 26.9982 60.6919 25.8216C62.864 24.6451 64.4931 24.0568 65.5792 24.0568C66.4661 24.0568 67.3349 24.6179 68.1857 25.7402C69.5795 22.8259 70.9008 20.2375 72.1498 17.9749C73.4168 15.7123 74.4757 14.0289 75.3265 12.9248C76.1772 11.8206 76.7836 11.2686 77.1456 11.2686C77.5438 11.2686 77.9058 11.4677 78.2317 11.8659C78.5756 12.246 78.7475 12.6804 78.7475 13.1691C78.7475 14.1104 78.0597 15.7304 76.684 18.0292C75.3084 20.3099 73.9508 22.5363 72.6113 24.7084C71.2719 26.8805 70.1225 29.0255 69.1631 31.1433C68.2038 33.243 67.7241 35.1888 67.7241 36.9808C67.7241 38.6099 68.249 39.4244 69.2989 39.4244C69.9324 39.4244 70.7289 39.0715 71.6882 38.3655C72.6475 37.6415 74.0142 36.4378 75.788 34.7544V36.7364C71.8783 41.7866 68.8645 44.3116 66.7467 44.3116C65.8959 44.3116 65.2805 43.9858 64.9004 43.3342C64.5384 42.6826 64.3574 41.7142 64.3574 40.429C64.3574 38.6913 64.5746 36.8179 65.009 34.8087ZM67.0182 28.1838C65.4072 28.7268 63.5157 29.6047 61.3436 30.8175C59.1715 32.0121 57.8592 32.8357 57.4066 33.2882C57.0084 33.6503 56.6554 34.329 56.3477 35.3246C56.04 36.3201 55.8862 37.0713 55.8862 37.5781C55.8862 37.8858 55.9767 38.1393 56.1577 38.3384C56.3387 38.5375 56.5649 38.637 56.8365 38.637C57.0899 38.637 57.3795 38.5284 57.7053 38.3112C58.0311 38.094 58.547 37.6686 59.2529 37.0351C59.977 36.4016 60.4476 35.9943 60.6648 35.8133C60.9725 35.5418 61.6513 34.9626 62.7011 34.0756C63.7691 33.1706 64.5474 32.4646 65.0361 31.9578C65.5249 31.451 65.9412 30.8899 66.2851 30.2744C66.629 29.6409 66.8734 28.944 67.0182 28.1838Z" fill="white"/>
<path d="M50.9718 22.6179C50.5193 22.6179 50.0848 22.4459 49.6685 22.102C49.2703 21.7581 49.0712 21.3237 49.0712 20.7987C49.0712 20.0023 49.4513 19.1154 50.2116 18.1379C50.9718 17.1605 51.7592 16.6718 52.5737 16.6718C53.1167 16.6718 53.5693 16.8437 53.9313 17.1876C54.2933 17.5134 54.4743 17.9931 54.4743 18.6266C54.4743 19.405 54.1032 20.2648 53.3611 21.206C52.619 22.1473 51.8225 22.6179 50.9718 22.6179ZM52.8181 34.7545V36.7365C51.0623 38.9991 49.4242 40.7097 47.9037 41.8681C46.3832 43.0085 45.089 43.5787 44.0211 43.5787C42.5368 43.5787 41.4326 42.8003 40.7086 41.2437C39.9846 39.687 39.6226 37.9855 39.6226 36.1392C39.6226 35.4333 39.695 34.7636 39.8398 34.13C39.9846 33.4784 40.1565 32.9444 40.3556 32.5281C40.5548 32.1118 40.9258 31.4601 41.4688 30.5732C44.0392 26.5729 46.3923 24.5728 48.5282 24.5728C49.6323 24.5728 50.1844 24.9981 50.1844 25.8489C50.1844 26.4281 49.8224 27.3332 49.0984 28.564C48.3924 29.7949 47.7589 30.6728 47.1978 31.1977C45.623 32.7182 44.5912 33.7771 44.1025 34.3744C43.6319 34.9717 43.3966 35.6505 43.3966 36.4107C43.3966 37.0624 43.6409 37.6054 44.1297 38.0398C44.6184 38.4742 45.2519 38.6914 46.0303 38.6914C46.881 38.6914 47.8132 38.3837 48.8268 37.7683C49.8586 37.1348 51.189 36.1302 52.8181 34.7545Z" fill="white"/>
<path d="M31.993 35.4604C31.5404 34.6277 30.8617 33.8765 29.9566 33.2068C29.0516 32.5371 28.0289 32.0031 26.8885 31.6049C25.7663 31.1886 24.5897 30.8809 23.3589 30.6817C19.7025 30.1387 16.2905 28.9531 13.1228 27.1249C12.8513 26.9801 12.5617 26.6724 12.254 26.2018C11.9463 25.7312 11.7924 25.2786 11.7924 24.8442C11.7924 23.2514 12.0549 21.6585 12.5798 20.0656C13.1228 18.4546 13.8107 17.1966 14.6433 16.2916C15.9828 14.7892 18.3902 13.4769 21.8655 12.3546C25.359 11.2324 29.2869 10.6713 33.6492 10.6713C36.2557 10.6713 38.2649 10.8704 39.6768 11.2686C41.1067 11.6668 41.8217 12.2822 41.8217 13.1149C41.8217 14.4724 41.6317 15.5223 41.2515 16.2644C40.8895 17.0066 40.4913 17.5043 40.0569 17.7577C39.6406 17.9931 38.8984 18.3189 37.8305 18.7352C36.6901 19.1334 35.6946 19.5497 34.8438 19.9842C34.0112 20.4186 33.2962 20.8349 32.6989 21.2331C32.1016 21.6313 31.7305 21.8304 31.5857 21.8304C31.4047 21.8304 31.3142 21.758 31.3142 21.6132C31.3142 21.3055 31.6309 20.8439 32.2645 20.2285C32.9161 19.595 33.7125 19.0429 34.6538 18.5723C35.6493 18.0474 36.1471 17.7125 36.1471 17.5677C36.1471 17.3324 35.595 17.2147 34.4909 17.2147C31.1422 17.2147 28.047 17.5134 25.2051 18.1107C22.3633 18.708 20.1188 19.4954 18.4716 20.4729C16.8426 21.4503 16.028 22.4459 16.028 23.4595C16.028 24.093 16.3629 24.5456 17.0326 24.8171C17.7204 25.0705 19.2228 25.5049 21.5397 26.1203C23.8566 26.7358 25.9292 27.4417 27.7574 28.2381C30.382 29.3604 32.3278 30.5279 33.5949 31.7406C34.8619 32.9534 35.4955 34.311 35.4955 35.8133C35.4955 36.8451 35.2421 37.8859 34.7352 38.9357C34.2465 39.9675 33.5225 40.9178 32.5631 41.7866C31.6038 42.6555 30.4996 43.3704 29.2507 43.9316C28.1827 44.3841 26.8342 44.8095 25.2051 45.2077C23.5942 45.6059 21.8384 45.9136 19.9378 46.1308C18.0553 46.3661 16.2543 46.4838 14.5347 46.4838C11.367 46.4838 8.81483 46.1851 6.87803 45.5878C4.95934 44.9905 4 44.0854 4 42.8727C4 42.3296 4.32582 41.488 4.97745 40.3476C5.62908 39.1891 6.39836 38.4108 7.2853 38.0126C8.06364 37.7049 8.81482 37.5329 9.53886 37.4967C10.2629 37.4424 10.6249 37.5239 10.6249 37.7411C10.6249 37.7954 10.5978 37.8497 10.5435 37.904C10.4892 37.9583 10.4258 38.0035 10.3534 38.0397C10.281 38.0759 10.2086 38.1121 10.1362 38.1483C9.77417 38.2932 9.47551 38.4108 9.24019 38.5013C9.02298 38.5737 8.84198 38.6552 8.69717 38.7457C8.57046 38.8181 8.50711 38.9267 8.50711 39.0715C8.50711 39.4516 10.3805 39.6417 14.1274 39.6417C17.3856 39.6417 20.0554 39.524 22.137 39.2887C24.2186 39.0534 26.0559 38.628 27.6488 38.0126C29.2416 37.3972 30.6897 36.5464 31.993 35.4604Z" fill="white"/>
<path d="M164.157 34.2596C162.356 32.5373 158.143 33.7645 157.034 34.7431L155.358 38.3734C160.936 32.9913 164.548 36.5953 161.71 40.6075C157.71 46.2625 155.741 53.5375 159.166 55.4946C161.906 57.0603 165.984 54.1899 167.484 52.2653L169.442 57.3539C169.442 51.091 173.684 45.9832 174.824 44.3389C169.442 48.6362 167.191 48.9382 161.71 50.2103L166.701 51.091C165.886 52.3632 162.054 55.0328 159.851 53.5375C157.976 52.2653 160.483 45.8284 163.374 42.3817C165.272 40.1188 166.919 36.9017 164.157 34.2596Z" fill="white"/>
<path d="M21.1345 11.9817C20.2237 12.1406 17.9951 13.1069 16.9946 13.5702C15.2559 11.664 15.5458 8.40752 16.7877 5.52832C16.7877 7.31541 16.9946 11.7831 21.1345 11.9817Z" fill="#FFA2FF"/>
<path d="M30.3133 9.96008C31.1789 9.7613 33.5249 9.80577 34.5897 9.85284C35.3704 7.44285 33.8298 4.55989 31.5988 2.38404C32.3039 4.02638 33.8845 8.21051 30.3133 9.96008Z" fill="#FFA2FF"/>
</svg>
