<svg width="178" height="60" viewBox="0 0 178 60" fill="none" xmlns="http://www.w3.org/2000/svg">
<path d="M156.091 35.5525V37.2769C154.958 38.3064 154.049 38.9928 153.362 39.336C152.676 39.6791 151.689 39.8164 150.403 39.7478C148.172 42.3902 146.207 43.7114 144.509 43.7114C143.548 43.7114 142.673 43.394 141.883 42.7591C141.094 42.1243 140.459 41.2577 139.979 40.1596C139.515 39.0614 139.284 37.8346 139.284 36.479C139.284 35.3809 139.644 34.1626 140.365 32.8242C141.103 31.4858 142.046 30.2418 143.196 29.0922C144.363 27.9254 145.607 26.9902 146.928 26.2867C148.249 25.5661 149.476 25.2057 150.608 25.2057C151.415 25.2057 152.05 25.3344 152.513 25.5918C152.976 25.832 153.208 26.1752 153.208 26.6213C153.208 26.9645 153.011 27.3591 152.616 27.8053C153.268 27.9425 153.714 28.1742 153.954 28.5002C154.195 28.8091 154.315 29.3839 154.315 30.2247C154.315 31.0483 154.117 32.0864 153.723 33.339C153.345 34.5916 152.822 35.7669 152.153 36.8651L152.616 37.3284H153.002C153.294 37.3284 153.577 37.2598 153.851 37.1225C154.143 36.9681 154.401 36.8136 154.624 36.6592C154.847 36.4876 155.336 36.1187 156.091 35.5525ZM150.789 28.7833C149.364 29.6413 148.146 30.422 147.134 31.1255C146.121 31.8118 145.264 32.5154 144.56 33.236C143.857 33.9395 143.385 34.6516 143.144 35.3723C142.715 37.2941 142.501 38.3322 142.501 38.4866C142.501 39.6191 143.29 40.1853 144.869 40.1853C145.607 40.1853 146.842 39.5504 148.575 38.2807C148.283 37.4742 148.138 36.7021 148.138 35.9643C148.138 34.8833 148.361 33.7851 148.807 32.6698C149.253 31.5373 149.914 30.2418 150.789 28.7833Z" fill="white"/>
<path d="M128.268 36.5304V37.1739C128.268 38.1863 128.516 38.9756 129.014 39.5418C129.512 40.108 130.164 40.3912 130.97 40.3912C131.811 40.3912 132.677 40.1938 133.57 39.7992C134.479 39.4045 135.38 38.8812 136.272 38.2292C137.164 37.5771 138.254 36.702 139.541 35.6039V37.1739C137.602 39.5075 135.783 41.3006 134.084 42.5532C132.386 43.7886 130.661 44.4063 128.911 44.4063C127.384 44.4063 126.174 43.8143 125.282 42.6304C124.39 41.4464 123.944 39.8249 123.944 37.7659C123.944 35.9642 124.364 34.3341 125.205 32.8756C126.046 31.4 127.418 29.8471 129.323 28.217C130.627 27.1017 131.922 26.2609 133.209 25.6947C134.496 25.1284 135.646 24.8453 136.658 24.8453C137.465 24.8453 138.1 25.0341 138.563 25.4116C139.043 25.7719 139.284 26.321 139.284 27.0588C139.284 28.1398 138.88 29.2208 138.074 30.3018C137.267 31.3657 136.032 32.4295 134.368 33.4933C132.72 34.54 130.687 35.5524 128.268 36.5304ZM128.525 34.8575C130.069 34.2569 131.391 33.5105 132.489 32.6182C133.587 31.726 134.393 30.8766 134.908 30.0702C135.44 29.2465 135.706 28.646 135.706 28.2685C135.706 27.8738 135.526 27.6765 135.165 27.6765C134.857 27.6765 134.35 27.8738 133.647 28.2685C132.961 28.6631 132.257 29.1779 131.536 29.8128C130.833 30.4477 130.198 31.1941 129.632 32.052C129.065 32.9099 128.697 33.8451 128.525 34.8575Z" fill="white"/>
<path d="M113.932 35.6553C112.422 37.3712 111.066 38.8297 109.865 40.0308C108.681 41.2319 107.712 42.1328 106.957 42.7333C106.219 43.3167 105.713 43.6084 105.438 43.6084C104.992 43.6084 104.486 43.2481 103.919 42.5274C103.37 41.8067 102.898 40.8887 102.504 39.7734C102.109 38.6581 101.912 37.5256 101.912 36.376C101.912 34.7116 102.718 33.0386 104.331 31.3571C105.944 29.6583 107.78 28.2513 109.839 27.136C111.898 26.0207 113.443 25.463 114.472 25.463C115.313 25.463 116.136 25.9949 116.943 27.0588C118.264 24.2962 119.517 21.8425 120.701 19.6977C121.902 17.5528 122.906 15.9571 123.712 14.9104C124.519 13.8637 125.093 13.3403 125.437 13.3403C125.814 13.3403 126.157 13.5291 126.466 13.9066C126.792 14.2669 126.955 14.6787 126.955 15.142C126.955 16.0343 126.303 17.57 124.999 19.7491C123.695 21.9112 122.408 24.0217 121.138 26.0807C119.869 28.1398 118.779 30.1731 117.87 32.1807C116.96 34.1711 116.505 36.0157 116.505 37.7144C116.505 39.2587 117.003 40.0308 117.998 40.0308C118.599 40.0308 119.354 39.6962 120.263 39.027C121.173 38.3407 122.468 37.1996 124.15 35.6038V37.4827C120.443 42.27 117.586 44.6637 115.579 44.6637C114.772 44.6637 114.189 44.3548 113.829 43.7371C113.485 43.1194 113.314 42.2014 113.314 40.9831C113.314 39.3359 113.52 37.5599 113.932 35.6553ZM115.836 29.3752C114.309 29.89 112.516 30.7222 110.457 31.8718C108.398 33.0043 107.154 33.785 106.725 34.214C106.347 34.5572 106.013 35.2006 105.721 36.1443C105.429 37.0881 105.284 37.8002 105.284 38.2806C105.284 38.5723 105.369 38.8125 105.541 39.0013C105.713 39.19 105.927 39.2844 106.184 39.2844C106.425 39.2844 106.699 39.1814 107.008 38.9755C107.317 38.7696 107.806 38.3664 108.475 37.7659C109.161 37.1653 109.608 36.7792 109.813 36.6076C110.105 36.3503 110.749 35.8012 111.744 34.9604C112.756 34.1025 113.494 33.4333 113.957 32.9528C114.421 32.4724 114.815 31.9405 115.141 31.3571C115.467 30.7565 115.699 30.0959 115.836 29.3752Z" fill="white"/>
<path d="M102.195 35.5525V37.2769C101.062 38.3064 100.153 38.9928 99.4667 39.336C98.7804 39.6791 97.7937 39.8164 96.5068 39.7478C94.2762 42.3902 92.3115 43.7114 90.6128 43.7114C89.6519 43.7114 88.7768 43.394 87.9875 42.7591C87.1982 42.1243 86.5633 41.2577 86.0829 40.1596C85.6196 39.0614 85.3879 37.8346 85.3879 36.479C85.3879 35.3809 85.7483 34.1626 86.4689 32.8242C87.2068 31.4858 88.1505 30.2418 89.3001 29.0922C90.4669 27.9254 91.7109 26.9902 93.0322 26.2867C94.3534 25.5661 95.5802 25.2057 96.7127 25.2057C97.5192 25.2057 98.1541 25.3344 98.6173 25.5918C99.0806 25.832 99.3123 26.1752 99.3123 26.6213C99.3123 26.9645 99.115 27.3591 98.7203 27.8053C99.3723 27.9425 99.8185 28.1742 100.059 28.5002C100.299 28.8091 100.419 29.3839 100.419 30.2247C100.419 31.0483 100.222 32.0864 99.827 33.339C99.4495 34.5916 98.9262 35.7669 98.257 36.8651L98.7203 37.3284H99.1064C99.3981 37.3284 99.6812 37.2598 99.9557 37.1225C100.247 36.9681 100.505 36.8136 100.728 36.6592C100.951 36.4876 101.44 36.1187 102.195 35.5525ZM96.8929 28.7833C95.4687 29.6413 94.2504 30.422 93.2381 31.1255C92.2257 31.8118 91.3678 32.5154 90.6643 33.236C89.9608 33.9395 89.4889 34.6516 89.2487 35.3723C88.8197 37.2941 88.6052 38.3322 88.6052 38.4866C88.6052 39.6191 89.3945 40.1853 90.9731 40.1853C91.7109 40.1853 92.9464 39.5504 94.6794 38.2807C94.3877 37.4742 94.2419 36.7021 94.2419 35.9643C94.2419 34.8833 94.4649 33.7851 94.9111 32.6698C95.3572 31.5373 96.0178 30.2418 96.8929 28.7833Z" fill="white"/>
<path d="M68.3233 39.13C70.6912 37.0366 72.7245 35.2178 74.4233 33.6735C76.122 32.112 77.4518 30.8852 78.4127 29.9929C79.3907 29.1007 80.2487 28.3457 80.9865 27.728C81.7243 27.1102 82.1962 26.8014 82.4021 26.8014C82.7967 26.7842 83.1742 27.196 83.5346 28.0368C83.8949 28.8604 84.0751 29.521 84.0751 30.0187C84.0751 30.3447 83.526 31.1168 82.4278 32.3351C81.3468 33.5362 80.5318 34.4971 79.9827 35.2178C79.4508 35.9384 79.1848 36.6934 79.1848 37.4827C79.1848 37.946 79.3392 38.3235 79.6481 38.6152C79.957 38.8897 80.3259 39.027 80.7548 39.027C81.2524 39.027 81.8444 38.7696 82.5308 38.2549C83.2343 37.7401 84.3324 36.8221 85.8253 35.5009V37.3283C84.3324 38.7353 82.9769 39.9536 81.7586 40.9831C80.5404 41.9955 79.4765 42.759 78.5671 43.2738C77.6748 43.7714 76.9284 44.0202 76.3279 44.0202C75.796 44.0202 75.3498 43.8229 74.9895 43.4282C74.6292 43.0164 74.449 42.5102 74.449 41.9097C74.449 41.3263 74.5519 40.7343 74.7579 40.1337C74.9638 39.5332 75.2812 38.8211 75.7102 37.9975C76.1391 37.1739 76.7054 36.1872 77.4089 35.0376C78.1124 33.8708 78.7558 32.807 79.3392 31.8461C77.5891 33.2702 76.0362 34.6429 74.6806 35.9642C73.3251 37.2854 72.2184 38.4436 71.3604 39.4388C70.5025 40.4169 69.8247 41.189 69.3271 41.7552C68.3662 42.8191 67.474 43.351 66.6503 43.351C65.7581 43.351 65.312 42.7161 65.312 41.4464C65.312 40.9316 65.6465 40.0136 66.3157 38.6924C66.9849 37.354 67.9372 35.6553 69.1727 33.5963C69.2756 33.459 69.3271 33.2445 69.3271 32.9528C69.3271 32.6096 69.1555 32.438 68.8123 32.438C68.4348 32.438 67.8858 32.7984 67.1651 33.519C66.4616 34.2225 65.0889 35.7068 63.047 37.9717C62.4808 38.6066 61.8373 39.4388 61.1166 40.4683C60.4131 41.4807 59.9069 42.1585 59.5981 42.5017C59.2892 42.8448 58.9804 43.0164 58.6715 43.0164C58.0538 43.0164 57.479 42.4673 56.9471 41.3692C56.4151 40.271 56.1492 38.9927 56.1492 37.5342C56.1492 36.4703 56.3208 35.5524 56.6639 34.7802C57.0243 34.0081 57.5733 33.0472 58.3112 31.8975C59.4608 30.2331 60.396 29.0492 61.1166 28.3457C61.8545 27.625 62.6266 27.2647 63.4331 27.2647C63.9307 27.2647 64.3511 27.3676 64.6942 27.5735C65.0374 27.7623 65.209 28.0282 65.209 28.3714C65.209 28.7317 64.8916 29.3237 64.2567 30.1473C63.639 30.971 62.8497 31.8203 61.8888 32.6954C61.374 33.193 60.885 33.8107 60.4217 34.5486C59.9584 35.2692 59.7268 35.7926 59.7268 36.1186C59.7268 36.5819 59.9069 36.8135 60.2673 36.8135C60.559 36.8135 61.2968 36.213 62.4808 35.0119C63.6647 33.8107 64.9602 32.5067 66.3672 31.0997C67.7914 29.6755 69.104 28.5001 70.3052 27.5735C71.5234 26.6298 72.553 26.1579 73.3937 26.1579C73.9085 26.1579 74.3289 26.3553 74.6549 26.7499C74.9981 27.1274 75.1697 27.5993 75.1697 28.1655C75.1697 28.543 74.9123 29.2293 74.3975 30.2246C73.8828 31.2026 73.1278 32.4209 72.1326 33.8794C71.1545 35.3207 69.8848 37.0709 68.3233 39.13Z" fill="white"/>
<path d="M39.9858 36.3246V35.7069C44.4128 31.0397 47.4585 27.771 49.1229 25.9007C49.5004 23.7902 50.4098 22.7349 51.8511 22.7349C52.2115 22.7349 52.5975 22.8378 53.0093 23.0438L53.1638 23.5328C53.0951 23.7387 53.0608 24.0304 53.0608 24.4079C53.0608 24.7339 53.1809 25.343 53.4212 26.2353C53.6785 27.1104 53.8759 27.8482 54.0131 28.4488C54.1504 29.0493 54.219 29.7271 54.219 30.4821C54.219 31.6146 53.9617 32.7041 53.4469 33.7508C52.9321 34.7803 52.1857 35.7756 51.2077 36.7364C50.2296 37.6802 48.9685 38.6497 47.4242 39.6449C48.0419 39.7478 48.5309 39.7993 48.8912 39.7993C49.5947 39.7993 50.3497 39.6277 51.1562 39.2845C51.9798 38.9242 52.812 38.4523 53.6528 37.8689C54.5107 37.2684 55.5059 36.4962 56.6384 35.5525V37.2769C54.4421 39.4218 52.4774 41.0519 50.7444 42.1672C49.0114 43.2654 47.5185 43.8144 46.2659 43.8144C44.653 43.8144 43.1602 43.1281 41.7875 41.7554C40.981 40.9318 40.4749 40.1425 40.269 39.3875C40.0802 38.6325 39.9858 37.6115 39.9858 36.3246ZM49.5862 32.3867L49.1229 28.6289C48.059 29.83 45.7855 32.1379 42.3023 35.5525C43.3318 35.7756 44.0353 36.0758 44.4128 36.4533C44.7903 36.8308 45.3222 37.5601 46.0086 38.6411C47.1754 38.1606 48.0676 37.5086 48.6853 36.685C49.3202 35.8442 49.6376 34.7031 49.6376 33.2618C49.6376 33.0902 49.6291 32.9358 49.6119 32.7985C49.6119 32.6612 49.6033 32.524 49.5862 32.3867Z" fill="white"/>
<path d="M29.15 33.1072C27.0909 33.1758 25.5809 33.2101 24.62 33.2101C23.1444 33.2101 21.1025 33.1758 18.4944 33.1072C17.9453 33.7077 17.2761 34.4198 16.4868 35.2434C15.6975 36.0499 14.9511 36.8049 14.2476 37.5084C13.5441 38.1947 12.9349 38.7867 12.4202 39.2843C11.9226 39.7648 11.5107 40.168 11.1847 40.494C9.28011 42.3471 8.0361 43.5568 7.4527 44.1231C6.88646 44.6893 6.2859 45.1955 5.65103 45.6416C5.01616 46.1049 4.43276 46.3366 3.90084 46.3366C3.30028 46.3366 3 46.062 3 45.5129C3 44.9124 3.42897 43.9858 4.28691 42.7332C5.14485 41.4806 6.11432 40.3739 7.19532 39.413C8.27632 38.4521 9.16 37.9717 9.84635 37.9717C10.0351 37.9717 10.3011 38.0575 10.6442 38.229L15.5345 33.0042C14.9168 32.9184 14.1103 32.8669 13.1151 32.8498C12.1199 32.8155 11.4507 32.7382 11.1075 32.6181C10.7643 32.498 10.5928 32.2063 10.5928 31.743C10.5928 31.0052 11.3821 29.847 12.9607 28.2684C13.8186 27.3933 14.6251 26.8356 15.38 26.5954C16.135 26.3552 17.5764 26.2265 19.7041 26.2093C18.4515 26.3809 17.5592 26.5868 17.0273 26.827C16.5125 27.0501 16.2294 27.3933 16.1779 27.8566C16.6755 27.8566 17.1302 27.8566 17.5421 27.8566C17.971 27.8566 18.5201 27.8566 19.1893 27.8566C19.8756 27.8394 20.3818 27.8223 20.7078 27.8051C23.5219 25.0597 26.0785 22.6746 28.3778 20.6499C30.6771 18.608 33.0965 16.6776 35.636 14.8588C38.1926 13.0228 40.9123 11.3413 43.795 9.81413C44.3612 10.552 44.6443 11.3241 44.6443 12.1306C44.6443 12.7998 44.4213 13.5719 43.9751 14.447C43.5462 15.3221 42.6196 16.9693 41.1954 19.3887C39.7884 21.7909 38.3556 24.3476 36.8971 27.0587C37.3776 27.0587 37.7722 27.0673 38.0811 27.0844C38.4071 27.0844 38.7503 27.093 39.1106 27.1102C40.0887 27.1102 40.6806 27.1273 40.8866 27.1616C41.1096 27.196 41.2211 27.3675 41.2211 27.6764C41.2211 27.8137 41.0839 28.0625 40.8093 28.4228C40.552 28.766 40.0887 29.3494 39.4195 30.173C38.7503 30.9795 38.0983 31.8031 37.4634 32.6439L33.6799 32.9527C31.6723 36.7277 30.6685 38.8553 30.6685 39.3358C30.6685 40.0393 31.0374 40.3911 31.7753 40.3911C32.1356 40.3911 33.6284 39.6361 36.2537 38.1261L36.0478 39.4902C34.6408 40.5541 33.5426 41.3948 32.7533 42.0126C31.9812 42.6131 31.3034 43.1193 30.72 43.5311C30.1537 43.9258 29.6304 44.2175 29.15 44.4062C28.6867 44.6121 28.2148 44.7151 27.7344 44.7151C27.1681 44.7151 26.6105 44.4491 26.0614 43.9172C25.5123 43.4024 25.2378 42.6646 25.2378 41.7037C25.2378 41.309 25.3836 40.7514 25.6753 40.0307C25.967 39.2929 26.2759 38.5894 26.6019 37.9202C26.9451 37.251 27.7944 35.6467 29.15 33.1072ZM24.2854 27.2646L32.6246 27.1102C33.6027 25.4458 34.392 24.0988 34.9925 23.0693C35.6102 22.0397 36.2794 20.9244 37.0001 19.7233C37.7379 18.505 38.3642 17.4755 38.879 16.6347C39.4109 15.794 39.9943 14.8416 40.6292 13.7778C39.3937 14.5499 38.1326 15.4079 36.8457 16.3516C35.5588 17.2953 34.1088 18.4364 32.4959 19.7748C30.883 21.096 29.4502 22.3314 28.1976 23.4811C26.9451 24.6136 25.641 25.8747 24.2854 27.2646Z" fill="white"/>
<path d="M164.735 33.5005C162.833 31.674 158.394 33.7454 156.022 35.5903L155.442 37.8634C161.333 32.1555 165.148 35.9777 162.151 40.2327C157.926 46.23 155.846 53.9453 159.464 56.0209C162.357 57.6814 166.664 54.6372 168.249 52.5962L170.316 57.9928C170.316 51.3508 174.796 45.9338 176 44.1899C170.316 48.7474 167.938 49.0676 162.151 50.4168L167.422 51.3508C166.56 52.7 162.514 55.5312 160.187 53.9453C158.207 52.5962 160.855 45.7697 163.908 42.1143C165.912 39.7144 167.652 36.3026 164.735 33.5005Z" fill="white"/>
<path d="M44.0626 15.5719C44.0626 15.5719 43.5355 16.6788 42.2177 19.209C51.1787 19.8943 52.1592 10.0124 50.3894 5.652C50.3711 8.35089 50.0622 15.3126 44.0626 15.5719Z" fill="#FFA2FF"/>
<path d="M35.1541 14.5056C35.1541 14.5056 33.1511 15.6652 31.5697 17.0357C24.5063 13.9785 28.168 5.31369 32.3773 3.20965C30.5155 4.59724 25.7714 12.6607 35.1541 14.5056Z" fill="#FFA2FF"/>
</svg>
